<svg width="195" height="37" id="Capa_2" data-name="Capa 2" xmlns="http://www.w3.org/2000/svg" viewBox="0 0 581.34 217.74">
  <g id="Capa_1-2" data-name="Capa 1">
    <g>
      <path d="M426.3,73.39c-5.2-1.69-10.77,.92-12.86,5.87h0s-18.89,44.49-18.89,44.49l-18.89-44.5h0c-.06-.14-.12-.27-.19-.41-.07-.15-.14-.29-.22-.44-.09-.17-.18-.33-.28-.49-.08-.13-.16-.25-.24-.38-.11-.16-.22-.32-.33-.47-.09-.12-.18-.24-.28-.35-.12-.14-.23-.28-.36-.41-.11-.12-.22-.24-.34-.36-.12-.12-.23-.23-.36-.34-.13-.12-.27-.24-.41-.36-.12-.1-.23-.19-.35-.28-.15-.11-.31-.22-.47-.33-.12-.08-.25-.16-.38-.24-.16-.1-.32-.19-.49-.28-.14-.08-.29-.15-.44-.22-.15-.07-.31-.14-.46-.21-.18-.07-.36-.14-.54-.21-.09-.03-.17-.07-.27-.1-.05-.02-.1-.03-.16-.04-.2-.06-.39-.11-.59-.16-.14-.03-.28-.07-.42-.1-.19-.04-.39-.07-.58-.1-.15-.02-.3-.05-.45-.06-.18-.02-.36-.03-.54-.03-.17,0-.33-.02-.5-.02s-.33,.01-.49,.02c-.18,0-.36,.02-.54,.03-.15,.02-.3,.04-.45,.06-.19,.03-.39,.06-.58,.1-.14,.03-.28,.06-.42,.1-.2,.05-.4,.1-.59,.16-.05,.02-.1,.03-.16,.04-.09,.03-.18,.07-.27,.1-.18,.06-.36,.13-.54,.21-.16,.07-.31,.14-.46,.21-.15,.07-.29,.14-.44,.22-.17,.09-.33,.18-.49,.28-.13,.08-.25,.16-.38,.24-.16,.11-.32,.22-.47,.33-.12,.09-.24,.18-.35,.28-.14,.12-.28,.23-.41,.36-.12,.11-.24,.22-.36,.34-.12,.12-.23,.23-.34,.36-.12,.13-.24,.27-.36,.41-.1,.12-.19,.23-.28,.35-.11,.15-.22,.31-.33,.47-.08,.12-.16,.25-.24,.38-.1,.16-.19,.32-.28,.49-.08,.14-.15,.29-.22,.44-.07,.14-.13,.27-.19,.41h0s-18.89,44.49-18.89,44.49l-18.89-44.5h0c-2.09-4.94-7.66-7.55-12.86-5.86-5.5,1.79-8.51,7.69-6.72,13.19,.1,.29,.21,.57,.33,.85h0s28.52,67.18,28.52,67.18h.02c2.1,4.94,7.66,7.55,12.86,5.86,3-.97,5.24-3.17,6.39-5.86h0s18.88-44.48,18.88-44.48l18.88,44.49h.02c2.1,4.94,7.66,7.55,12.86,5.86,3-.97,5.24-3.17,6.39-5.86h0s28.52-67.18,28.52-67.18h0c.12-.28,.23-.56,.33-.86,1.79-5.5-1.22-11.4-6.72-13.19Z"/>
      <path d="M104.12,142.98l.11-.11c-8.9-6.49-14.73-16.98-14.73-28.73h0V62.42c0-5.78-4.69-10.47-10.47-10.47s-10.47,4.69-10.47,10.47v51.71h.07c0,17.22,7.89,32.73,20.21,43.11,1.92,2.28,4.8,3.74,8.01,3.74,5.78,0,10.47-4.69,10.47-10.47,0-2.96-1.24-5.63-3.22-7.54Z"/>
      <path d="M484.45,150.52c0-2.96-1.24-5.63-3.22-7.54l.11-.11c-8.9-6.49-14.73-16.98-14.73-28.73h0V62.42c0-5.78-4.69-10.47-10.47-10.47s-10.47,4.69-10.47,10.47v51.71h.07c0,17.22,7.89,32.73,20.21,43.11,1.92,2.28,4.8,3.74,8.01,3.74,5.78,0,10.47-4.69,10.47-10.47Z"/>
      <path d="M570.88,72.87c-5.78,0-10.47,4.69-10.47,10.47v33.59c0,12.77-10.35,23.12-23.12,23.12s-23.12-10.35-23.12-23.12v-33.59c0-5.78-4.69-10.47-10.47-10.47s-10.47,4.69-10.47,10.47v33.59c0,24.33,19.72,44.05,44.05,44.05,8.48,0,16.4-2.4,23.12-6.55v6.47h-.09c0,19.65-16.17,35.82-35.82,35.82-9.5,0-18.61-3.78-25.33-10.49l-.02,.02c-1.92-2.16-4.7-3.52-7.82-3.52-5.78,0-10.47,4.69-10.47,10.47,0,3.11,1.37,5.9,3.52,7.82l-.09,.09c10.66,10.66,25.12,16.65,40.19,16.65,31.15,0,56.79-25.61,56.84-56.76h0V83.34c0-5.78-4.69-10.47-10.47-10.47Z"/>
      <path d="M218.64,182.74v-.05c-.19,.03-.38,.06-.57,.09-.48,.04-.95,.11-1.42,.22-9.9,1.24-20.25-1.65-28.14-8.71-.23-.27-.47-.52-.73-.77-4.19-3.98-10.81-3.82-14.8,.37-3.98,4.19-3.82,10.81,.37,14.8,.12,.11,.25,.21,.37,.32,12.59,11.76,29.35,16.61,45.39,14.65,2.73-.03,5.44-1.11,7.47-3.25,3.98-4.19,3.82-10.81-.37-14.8-2.12-2.02-4.86-2.96-7.57-2.87Z"/>
      <path d="M44.8,72.89H21.02v-16.05H.04v93.68c0,5.78,4.69,10.47,10.47,10.47s10.47-4.69,10.47-10.47h.04v-56.7h23.78c5.78,0,10.47-4.69,10.47-10.47s-4.69-10.47-10.47-10.47Z"/>
      <path d="M200.03,116.93c0-24.33-19.72-44.05-44.05-44.05s-44.05,19.72-44.05,44.05,19.72,44.05,44.05,44.05,44.05-19.72,44.05-44.05Zm-44.05,23.12c-12.77,0-23.12-10.35-23.12-23.12s10.35-23.12,23.12-23.12,23.12,10.35,23.12,23.12-10.35,23.12-23.12,23.12Z"/>
      <path d="M252.5,72.89c-24.33,0-44.05,19.72-44.05,44.05s19.72,44.05,44.05,44.05,44.05-19.72,44.05-44.05-19.72-44.05-44.05-44.05Zm0,67.16c-12.77,0-23.12-10.35-23.12-23.12s10.35-23.12,23.12-23.12,23.12,10.35,23.12,23.12-10.35,23.12-23.12,23.12Z"/>
      <path d="M70.28,23.02c5.78,0,10.47-4.69,10.47-10.47,0-4.49-2.83-8.31-6.8-9.79l.03-.1c-5.5-1.74-11.27-2.66-17.14-2.66C25.66,0,0,25.66,0,56.84H21.02c0-19.65,16.17-35.82,35.82-35.82,3.69,0,7.32,.58,10.78,1.67v-.02c.86,.22,1.74,.35,2.66,.35Z"/>
    </g>
  </g>
</svg>