<svg id="Capa_2" data-name="Capa 2" xmlns="http://www.w3.org/2000/svg" viewBox="0 0 744.28 245.96">
  <defs>
    <style>
      .cls-1 {
        fill: #ff4ae1;
      }

      .cls-2 {
        fill: #fff;
      }

      .cls-3 {
        fill: #69e0ff;
      }
    </style>
  </defs>
  <g id="Capa_1-2" data-name="Capa 1">
    <g>
      <path class="cls-2" d="M537.81,121.7c-6.54-2.91-14.2,.03-17.11,6.57l-11.2,25.17-25.86-58.09h-.01c-1.26-2.82-3.51-5.21-6.55-6.57-6.54-2.91-14.2,.03-17.11,6.57l-25.86,58.09-25.86-58.09c-2.91-6.54-10.57-9.48-17.11-6.57-6.54,2.91-9.48,10.57-6.57,17.11l37.7,84.68c2.91,6.54,10.57,9.48,17.11,6.57h0c3.05-1.36,5.3-3.75,6.55-6.57h.01s25.86-58.08,25.86-58.08l25.86,58.09h.01c1.26,2.82,3.51,5.21,6.55,6.57,6.54,2.91,14.2-.03,17.11-6.57l23.04-51.75c2.91-6.54-.03-14.2-6.57-17.11Z"/>
      <path class="cls-2" d="M197.37,87.25c-30.53,0-55.29,24.75-55.29,55.29s24.75,55.29,55.29,55.29,55.29-24.75,55.29-55.29-24.75-55.29-55.29-55.29Zm0,84.66c-16.22,0-29.37-13.15-29.37-29.37s13.15-29.37,29.37-29.37,29.37,13.15,29.37,29.37-13.15,29.37-29.37,29.37Z"/>
      <path class="cls-2" d="M319.61,87.25c-30.53,0-55.29,24.75-55.29,55.29s24.75,55.29,55.29,55.29,55.29-24.75,55.29-55.29-24.75-55.29-55.29-55.29Zm0,84.66c-16.22,0-29.37-13.15-29.37-29.37s13.15-29.37,29.37-29.37,29.37,13.15,29.37,29.37-13.15,29.37-29.37,29.37Z"/>
      <path class="cls-2" d="M127.31,173.64s-.02-.01-.04-.02c-8.76-5.08-14.65-14.56-14.65-25.41V80.34c0-7.16-5.8-12.96-12.96-12.96s-12.96,5.8-12.96,12.96v67.87c0,20.46,11.12,38.31,27.65,47.87h0s0,0,0,0c6.2,3.58,14.12,1.45,17.7-4.74,3.58-6.2,1.45-14.12-4.74-17.7Z"/>
      <path class="cls-1" d="M271.01,228.88c-1.65-6.96-8.63-11.27-15.6-9.62-.01,0-.03,0-.04,.01-9.86,2.31-20.65-.54-28.09-8.43h0c-3.07-3.25-7.74-4.83-12.41-3.72-6.96,1.65-11.27,8.63-9.62,15.6,.54,2.3,1.68,4.3,3.19,5.9h0c14.04,14.89,34.38,20.25,52.96,15.87h0s0,0,0,0c6.96-1.65,11.27-8.63,9.62-15.6Z"/>
      <path class="cls-2" d="M618.46,173.64s-.02-.01-.04-.02c-8.76-5.08-14.65-14.56-14.65-25.41V80.34c0-7.16-5.8-12.96-12.96-12.96s-12.96,5.8-12.96,12.96v67.87c0,20.46,11.12,38.31,27.65,47.87h0s0,0,0,0c6.2,3.58,14.12,1.45,17.7-4.74,3.58-6.2,1.45-14.12-4.74-17.7Z"/>
      <path class="cls-2" d="M0,67.38v117.49c0,7.16,5.8,12.96,12.96,12.96s12.96-5.8,12.96-12.96V113.17h25.92c7.16,0,12.96-5.8,12.96-12.96s-5.8-12.96-12.96-12.96H25.92v-19.87h0c0-22.9,18.56-41.47,41.47-41.47,3.96,0,7.78,.57,11.4,1.6,0,0,.02,0,.02,0,6.88,1.97,14.06-2.01,16.03-8.88,1.97-6.88-2.01-14.06-8.88-16.03,0,0-.01,0-.02,0-5.9-1.69-12.11-2.61-18.55-2.61C30.17,0,0,30.17,0,67.38"/>
      <path class="cls-2" d="M744.28,100.21c0-7.16-5.8-12.96-12.96-12.96s-12.96,5.8-12.96,12.96v46.96c0,13.67-17.98,24.75-24.75,24.75-13.67,0-24.75-11.08-24.75-24.75v-46.96c0-7.16-5.8-12.96-12.96-12.96s-12.96,5.8-12.96,12.96v46.96c0,27.98,22.68,50.66,50.66,50.66,8.57,0,16.64-2.14,23.72-5.9-.78,2.87-2,5.67-3.71,8.3-8.83,13.61-27.02,17.49-40.62,8.66h0c-6-3.89-14.03-2.18-17.92,3.82-3.89,6-2.18,14.03,3.82,17.92,0,0,.02,0,.02,.01,25.61,16.6,59.84,9.3,76.45-16.31,6.59-10.16,8.91-21.69,8.91-32.92h0V100.21Z"/>
      <path class="cls-3" d="M547.2,87.65h12.96v12.96c0,7.15-5.81,12.96-12.96,12.96h0c-7.15,0-12.96-5.81-12.96-12.96h0c0-7.15,5.81-12.96,12.96-12.96Z" transform="translate(.26 202.6) rotate(-20.98)"/>
    </g>
  </g>
</svg>